<?xml version="1.0" standalone="no"?>
<!DOCTYPE svg PUBLIC "-//W3C//DTD SVG 20010904//EN"
 "http://www.w3.org/TR/2001/REC-SVG-20010904/DTD/svg10.dtd">
<svg version="1.0" xmlns="http://www.w3.org/2000/svg"
 width="1200.000000pt" height="1200.000000pt" viewBox="0 0 1200.000000 1200.000000"
 preserveAspectRatio="xMidYMid meet">
<metadata>
Created by potrace 1.14, written by Peter Selinger 2001-2017
</metadata>
<g transform="translate(0.000000,1200.000000) scale(0.100000,-0.100000)"
fill="#000000" stroke="none">
<path d="M3718 7431 c-105 -27 -184 -83 -247 -176 -47 -68 -61 -115 -66 -213
-17 -308 317 -525 596 -387 133 65 225 201 233 346 16 282 -244 498 -516 430z"/>
<path d="M2883 6920 c-81 -18 -167 -96 -193 -174 -36 -110 2 -235 91 -302 56
-41 100 -56 168 -56 153 1 265 116 264 272 -1 74 -19 123 -65 175 -61 70 -173
106 -265 85z"/>
<path d="M4613 6920 c-17 -4 -52 -19 -77 -34 -83 -49 -129 -132 -128 -234 2
-196 210 -324 388 -237 95 47 147 131 148 240 1 78 -21 134 -76 192 -57 59
-171 92 -255 73z"/>
<path d="M3778 6365 c-2 -1 -28 -5 -58 -8 -162 -18 -312 -90 -427 -207 -52
-52 -58 -74 -23 -85 10 -3 35 -21 56 -40 21 -19 42 -35 47 -35 4 0 6 -4 3 -9
-3 -5 1 -11 8 -14 9 -4 31 10 53 32 212 211 548 204 746 -14 l38 -42 42 42
c23 24 60 55 81 69 l40 27 -75 73 c-113 111 -263 185 -404 201 -88 9 -124 12
-127 10z"/>
<path d="M6368 6318 c-54 -14 -106 -65 -122 -118 -21 -72 -14 -188 15 -240 38
-69 98 -95 219 -94 114 0 164 13 207 54 40 37 56 93 56 187 0 100 -30 158 -98
193 -42 21 -64 25 -145 26 -52 1 -112 -3 -132 -8z m194 -118 c56 -27 65 -153
14 -197 -15 -13 -35 -23 -44 -24 -9 0 -26 -2 -37 -4 -25 -5 -85 14 -104 33
-19 18 -26 118 -12 155 20 50 114 70 183 37z"/>
<path d="M5750 6096 l0 -225 153 1 c83 1 167 6 185 12 78 23 111 128 57 181
-13 14 -29 25 -35 25 -6 0 -5 9 4 23 24 37 29 102 11 141 -25 53 -65 64 -232
65 l-143 2 0 -225z m248 112 c7 -7 12 -21 12 -33 0 -33 -20 -45 -77 -45 l-53
0 2 45 1 45 52 0 c28 0 56 -5 63 -12z m36 -174 c18 -47 -16 -67 -100 -62 l-49
3 -1 38 -1 37 72 0 c58 0 74 -3 79 -16z"/>
<path d="M6819 6318 c-1 -2 -2 -24 -3 -50 l-2 -48 38 0 38 0 0 -125 0 -125
-38 0 -39 0 2 -47 1 -48 140 0 139 0 1 48 c1 43 -1 47 -22 48 -13 1 -30 2 -36
3 -10 1 -13 34 -15 124 l-1 122 38 0 39 0 -2 48 -2 47 -137 3 c-76 1 -139 1
-139 0z"/>
<path d="M7444 6148 c2 -197 8 -219 80 -259 34 -19 56 -23 136 -23 109 0 161
19 202 76 22 31 23 42 25 206 l2 172 -65 0 -64 0 0 -149 c0 -142 -1 -151 -23
-177 -31 -35 -106 -40 -138 -7 -19 19 -21 33 -22 174 l-2 154 -67 3 -66 3 2
-173z"/>
<path d="M8077 6313 c-5 -10 -48 -140 -51 -156 -1 -7 -21 -71 -44 -143 -23
-72 -42 -134 -42 -137 0 -3 30 -5 68 -4 l67 2 15 47 15 48 77 0 77 0 10 -37
c6 -21 11 -44 11 -50 0 -9 21 -12 70 -12 39 1 70 3 70 5 0 8 -39 141 -70 239
-18 55 -39 124 -47 153 l-16 52 -103 0 c-56 0 -105 -3 -107 -7z m137 -183 c9
-30 16 -58 16 -62 0 -5 -23 -8 -51 -8 -43 0 -50 2 -45 18 3 9 12 44 21 77 25
90 27 94 36 60 4 -16 14 -55 23 -85z"/>
<path d="M8409 6310 c-1 -5 -1 -19 -1 -30 0 -61 -3 -59 75 -62 l72 -3 0 -170
0 -170 65 0 65 0 2 130 c1 72 2 149 2 173 l1 42 69 0 69 0 4 33 c8 71 19 67
-213 67 -132 0 -209 -4 -210 -10z"/>
<path d="M2677 6135 c-169 -43 -306 -151 -382 -302 -56 -114 -58 -125 -62
-458 -3 -284 -2 -316 17 -388 27 -109 73 -191 150 -268 290 -292 781 -200 943
178 43 102 49 164 45 489 -3 295 -4 300 -30 373 -70 192 -223 330 -419 377
-56 14 -206 13 -262 -1z m287 -228 c63 -29 145 -105 174 -163 38 -76 44 -135
40 -434 l-3 -285 -30 -58 c-146 -284 -531 -282 -669 3 l-31 65 0 315 0 315 29
59 c49 99 118 162 219 198 74 26 195 20 271 -15z"/>
<path d="M4678 6134 c-192 -46 -357 -201 -420 -394 -19 -60 -21 -90 -23 -369
-2 -335 3 -385 56 -497 119 -253 419 -386 689 -304 188 56 343 220 394 415 13
49 15 119 15 372 0 272 -3 319 -19 372 -54 181 -192 325 -370 390 -81 29 -235
36 -322 15z m285 -227 c96 -44 164 -120 202 -227 14 -37 16 -94 17 -325 0
-185 -4 -295 -11 -323 -59 -215 -283 -329 -493 -252 -85 32 -175 120 -208 205
-24 58 -24 68 -25 365 0 297 1 306 23 355 52 113 125 181 230 216 78 26 191
20 265 -14z"/>
<path d="M7189 6078 c-1 -2 -2 -15 -3 -30 l-3 -28 84 0 83 0 0 30 0 30 -80 0
c-44 0 -80 -1 -81 -2z"/>
<path d="M3706 5746 c-43 -20 -67 -46 -28 -31 9 3 22 7 27 8 6 1 13 6 16 11 4
4 36 10 73 13 113 10 201 -34 279 -138 9 -13 17 -31 17 -40 0 -19 14 -32 23
-22 7 7 -16 65 -35 89 -37 46 -93 94 -110 94 -10 0 -18 5 -18 10 0 6 -9 10
-19 10 -11 0 -22 4 -25 9 -4 5 -39 9 -80 9 -54 0 -86 -6 -120 -22z"/>
<path d="M3608 5680 c-21 -21 -38 -43 -38 -49 0 -5 -3 -11 -7 -13 -5 -1 -16
-20 -25 -40 -29 -62 -14 -244 22 -278 3 -3 10 -16 16 -30 9 -20 131 -190 150
-209 8 -8 159 -8 164 0 7 10 43 -18 37 -28 -3 -4 -52 -7 -110 -5 -87 3 -105 6
-100 18 3 8 0 14 -7 14 -9 0 -10 -11 -5 -37 8 -46 12 -53 30 -53 7 0 23 -13
35 -30 16 -23 29 -30 53 -30 35 0 77 34 54 44 -11 4 18 10 36 7 4 0 7 6 7 14
0 8 5 15 11 15 6 0 9 7 6 15 -4 8 -2 17 3 20 14 9 12 21 -4 38 -12 12 -4 27
59 110 40 52 71 98 67 101 -10 11 -22 6 -22 -8 0 -8 -4 -16 -8 -18 -5 -1 -32
-34 -60 -73 -28 -38 -59 -77 -69 -86 -21 -17 -102 -22 -120 -7 -9 7 -13 7 -13
-1 0 -6 -3 -11 -7 -11 -12 0 -63 46 -63 56 0 5 -14 24 -31 42 -16 17 -27 32
-23 32 4 0 -3 8 -14 19 -12 10 -19 20 -17 23 3 3 -1 11 -10 18 -8 7 -15 19
-15 26 0 8 -4 14 -10 14 -5 0 -10 8 -10 18 0 10 -3 22 -7 26 -23 23 -35 134
-20 191 9 34 40 95 49 95 4 0 8 7 8 15 0 8 5 15 10 15 17 0 53 41 44 50 -5 5
-26 -9 -46 -30z m291 -674 c15 -10 3 -29 -15 -22 -8 3 -14 1 -14 -5 0 -6 -5
-7 -12 -2 -7 4 -37 8 -67 8 -37 0 -56 4 -59 14 -3 10 6 12 42 10 25 -2 46 -2
46 1 0 8 65 4 79 -4z m-62 -39 c19 7 27 -19 9 -32 -25 -19 -56 -7 -54 20 2 18
6 21 18 16 8 -5 20 -6 27 -4z"/>
<path d="M6796 5689 c-90 -21 -138 -90 -141 -204 -3 -82 17 -157 50 -192 37
-41 117 -62 217 -59 110 4 170 30 198 87 32 62 27 75 -26 83 -72 10 -94 8 -94
-9 0 -20 -41 -45 -81 -49 -84 -7 -129 34 -129 119 0 63 21 101 65 115 65 21
145 -8 145 -52 0 -17 5 -19 38 -14 20 4 50 8 66 11 39 6 41 9 27 54 -17 57
-61 97 -121 110 -60 13 -159 13 -214 0z"/>
<path d="M9695 5694 c-40 -10 -80 -28 -99 -43 -34 -30 -59 -93 -62 -161 -8
-188 71 -262 273 -256 170 6 232 65 237 226 4 103 -30 176 -99 212 -31 16 -62
22 -135 24 -52 2 -104 1 -115 -2z m167 -119 c23 -9 48 -66 48 -110 0 -45 -26
-102 -49 -110 -33 -10 -96 -12 -128 -3 -82 22 -89 189 -9 224 30 13 103 13
138 -1z"/>
<path d="M5729 5683 c-1 -5 -2 -27 -4 -50 l-2 -43 38 0 39 0 0 -124 0 -124
-30 2 c-17 1 -34 -3 -39 -8 -6 -9 -7 -56 -2 -87 1 -4 64 -6 141 -6 l140 0 0
48 c0 44 -2 49 -22 50 -13 1 -30 2 -38 3 -12 1 -15 23 -18 124 l-2 122 40 0
40 0 -1 50 -2 50 -138 0 c-77 0 -139 -3 -140 -7z"/>
<path d="M6110 5467 l0 -224 64 -1 64 0 0 146 c0 81 1 154 2 162 0 8 21 -48
46 -125 25 -77 49 -150 54 -161 8 -20 16 -21 113 -22 l104 0 0 224 0 224 -64
0 -63 0 -1 -162 -1 -163 -53 160 -52 160 -107 3 -106 3 0 -224z"/>
<path d="M7233 5525 c0 -195 11 -231 80 -267 74 -37 237 -31 298 13 56 40 63
67 65 252 l2 167 -64 0 -64 0 0 -149 c0 -141 -1 -151 -22 -176 -33 -36 -99
-42 -135 -11 l-26 22 1 157 2 157 -69 0 -69 0 1 -165z"/>
<path d="M7780 5466 l0 -224 153 1 c159 0 197 7 234 40 45 41 41 137 -6 165
-27 15 -27 15 -10 49 22 42 18 112 -7 146 -28 37 -76 47 -228 47 l-136 0 0
-224z m253 102 c8 -12 7 -24 -1 -42 -10 -23 -17 -26 -67 -26 l-55 0 2 45 1 46
55 -3 c38 -2 58 -8 65 -20z m15 -152 c23 -8 28 -31 12 -56 -6 -10 -28 -14 -77
-15 l-68 0 -1 37 c-2 26 2 38 14 40 27 5 96 2 120 -6z"/>
<path d="M8377 5683 c-4 -7 -43 -128 -53 -163 -2 -8 -21 -71 -43 -140 -21 -69
-37 -128 -35 -132 3 -4 34 -7 69 -6 63 2 64 2 72 32 4 17 8 34 9 39 1 4 2 12
3 17 0 6 35 10 81 10 l79 0 10 -37 c6 -21 11 -43 11 -49 0 -13 127 -17 135 -5
5 8 -2 34 -86 304 l-42 137 -103 0 c-57 0 -105 -3 -107 -7z m133 -165 c11 -43
20 -80 20 -83 0 -3 -23 -5 -51 -5 -43 0 -50 2 -45 18 3 9 12 44 21 77 21 78
27 92 31 80 2 -5 12 -45 24 -87z"/>
<path d="M8719 5675 c-1 -8 -1 -26 -1 -40 0 -14 0 -29 1 -35 1 -6 33 -10 74
-10 l73 0 -2 -157 c-1 -87 0 -165 3 -174 3 -14 16 -17 66 -15 l62 1 2 155 c1
85 2 163 2 173 1 14 11 17 71 17 39 0 70 4 71 10 0 6 1 27 2 48 l0 37 -211 3
c-184 2 -212 0 -213 -13z"/>
<path d="M9184 5640 l0 -50 38 0 38 0 0 -125 c0 -69 -3 -124 -7 -124 -5 1 -22
1 -38 0 -30 -1 -30 -2 -30 -49 l0 -49 140 1 140 1 3 48 c2 26 -1 47 -5 48 -4
1 -21 2 -38 3 l-30 1 -2 123 -1 122 39 0 39 0 0 50 0 50 -143 0 -143 0 0 -50z"/>
<path d="M10140 5466 l0 -225 63 2 62 2 2 130 c1 72 2 144 3 160 0 19 19 -26
53 -130 l53 -160 107 -1 107 -1 0 224 0 223 -65 0 -65 0 -1 -162 -1 -163 -54
160 c-29 88 -53 161 -54 163 0 1 -47 2 -105 2 l-105 0 0 -224z"/>
<path d="M3720 5672 c-8 -3 -21 -14 -28 -24 -10 -14 -17 -16 -26 -8 -18 14
-68 -32 -60 -55 4 -9 -1 -21 -11 -29 -19 -13 -30 -66 -14 -66 6 0 7 -4 4 -10
-3 -5 1 -10 9 -10 9 0 16 -9 16 -20 0 -11 -5 -20 -11 -20 -6 0 3 -12 20 -26
17 -14 35 -22 41 -19 6 4 20 -1 31 -11 27 -24 67 -26 79 -3 7 13 18 16 42 12
30 -4 31 -4 17 13 -11 14 -11 16 0 10 16 -10 31 9 31 41 0 12 8 27 18 32 9 6
13 11 7 11 -5 0 -3 5 5 10 8 5 10 10 3 10 -6 0 -9 9 -5 22 3 14 2 19 -6 14 -7
-4 -12 -1 -12 8 0 9 -4 16 -9 16 -5 0 -7 10 -4 21 7 27 -35 63 -53 48 -8 -7
-16 -4 -26 9 -16 22 -37 31 -58 24z m30 -32 c0 -15 57 -29 69 -17 6 6 11 7 12
2 1 -6 2 -22 3 -38 2 -15 10 -35 18 -45 18 -19 16 -51 -4 -63 -7 -5 -9 -9 -4
-9 5 0 3 -6 -3 -13 -6 -8 -8 -17 -4 -21 10 -9 -17 -26 -41 -26 -10 0 -24 -7
-30 -15 -11 -15 -61 -31 -52 -17 4 7 -26 40 -31 35 -2 -2 -14 -3 -28 -3 -21 0
-25 5 -25 30 0 17 -9 39 -20 50 -11 11 -20 22 -20 25 0 3 9 14 20 25 11 11 20
31 20 45 0 22 4 26 25 25 13 -1 65 32 65 40 0 5 7 7 15 4 8 -4 15 -10 15 -14z"/>
<path d="M3694 5570 c-43 -43 -46 -50 -34 -65 7 -8 9 -15 4 -15 -5 -1 6 -14
25 -30 19 -16 39 -26 45 -22 6 3 17 7 25 9 24 3 45 32 46 63 0 17 -4 30 -10
30 -6 0 -10 -16 -10 -35 2 -33 -7 -43 -45 -51 -26 -6 -59 17 -55 38 2 10 0 16
-6 13 -11 -7 -12 8 -1 19 4 4 7 11 7 15 0 3 7 14 15 22 15 16 44 14 68 -4 7
-5 15 -7 18 -4 7 6 -33 30 -57 34 -9 1 -24 -6 -35 -17z"/>
<path d="M4109 5538 c0 -2 -1 -41 -2 -87 -1 -55 -6 -86 -14 -88 -7 -3 -9 -11
-6 -20 4 -11 2 -14 -5 -9 -7 4 -12 1 -12 -8 0 -8 -3 -21 -6 -30 -3 -9 -2 -16
2 -16 13 0 45 60 38 71 -3 5 0 9 6 9 6 0 9 4 5 9 -3 5 -1 12 5 16 13 8 13 155
0 155 -5 0 -10 -1 -11 -2z"/>
<path d="M3886 5405 c-12 -12 -16 -13 -16 -3 0 7 -11 0 -24 -17 -13 -16 -22
-33 -19 -37 2 -5 0 -8 -6 -8 -10 0 -9 -11 3 -45 13 -35 24 -50 35 -47 6 1 11
-2 11 -7 0 -15 39 -20 75 -8 26 8 38 19 47 43 6 18 16 30 22 27 6 -3 6 0 -1 7
-6 7 -9 19 -6 28 4 10 2 13 -5 8 -8 -4 -12 0 -12 11 -1 20 -20 47 -35 49 -6 1
-20 5 -31 8 -14 4 -28 1 -38 -9z m59 -25 c4 -6 11 -8 16 -5 5 4 9 -3 9 -14 0
-11 5 -23 10 -26 7 -4 6 -14 -2 -28 -6 -12 -11 -23 -10 -24 5 -8 1 -25 -4 -20
-4 3 -16 0 -27 -8 -16 -11 -25 -12 -41 -2 -12 6 -25 12 -31 12 -5 1 -9 6 -7
13 1 7 -2 12 -6 12 -5 0 -9 8 -10 18 -1 25 19 73 28 67 5 -3 11 -1 15 5 3 5
17 10 30 10 13 0 27 -5 30 -10z"/>
<path d="M3900 5359 c-12 -9 -11 -10 7 -6 23 5 49 -15 40 -31 -3 -4 -2 -14 3
-22 7 -11 9 -8 8 10 -1 24 -24 60 -37 60 -3 0 -13 -5 -21 -11z"/>
<path d="M3866 5334 c-7 -19 0 -34 17 -34 9 0 8 3 -1 8 -7 5 -10 16 -6 25 3 9
4 17 1 17 -3 0 -8 -7 -11 -16z"/>
<path d="M3906 5273 c-6 -14 -5 -15 5 -6 7 7 10 15 7 18 -3 3 -9 -2 -12 -12z"/>
<path d="M5850 5064 c-87 -31 -122 -88 -125 -203 -1 -40 2 -90 7 -111 24 -94
112 -141 253 -136 98 4 119 9 160 38 39 26 52 45 60 90 l7 35 -48 7 c-72 10
-94 8 -94 -9 0 -25 -49 -49 -100 -48 -86 1 -123 52 -109 146 10 59 21 74 65
86 67 18 144 -6 144 -45 0 -22 18 -25 81 -13 60 12 61 12 55 42 -10 48 -43 93
-84 113 -52 25 -211 30 -272 8z"/>
<path d="M6310 4847 l0 -224 170 0 c167 -1 170 -1 171 20 0 12 2 32 3 45 2 13
-2 26 -7 29 -6 3 -53 6 -106 7 l-96 1 0 30 c0 32 -2 32 106 34 29 1 38 6 42
24 3 12 9 32 12 45 7 22 6 22 -77 22 l-84 0 -1 45 -1 44 101 3 101 3 -1 38 c0
20 -1 42 -2 47 -1 6 -63 10 -166 10 l-165 0 0 -223z"/>
<path d="M6730 4845 l0 -225 63 3 62 2 2 135 c0 74 2 146 2 160 1 14 26 -47
54 -135 l53 -160 104 0 105 0 2 223 1 222 -64 0 -64 0 -1 -162 -1 -163 -53
160 -53 160 -106 3 -106 3 0 -226z"/>
<path d="M7248 5031 c-2 -22 -2 -45 0 -50 2 -6 33 -11 72 -11 45 0 69 -4 72
-12 2 -7 4 -86 4 -175 l-1 -161 66 0 67 0 0 152 c0 83 1 161 1 174 1 21 5 22
71 22 49 0 70 4 71 13 0 6 2 29 3 50 l2 37 -212 0 -212 0 -4 -39z"/>
<path d="M7730 4847 l0 -224 170 0 170 0 1 31 c2 42 -1 60 -11 66 -4 3 -50 5
-102 4 l-94 -1 -2 32 -2 33 69 -2 70 -1 16 40 c8 23 15 44 15 48 0 4 -38 7
-85 7 l-84 0 1 45 1 44 100 3 100 3 1 48 1 47 -167 0 -168 0 0 -223z"/>
<path d="M8150 4847 l0 -224 65 -1 c54 0 65 3 66 16 1 10 1 59 1 110 -1 50 1
92 3 92 7 0 105 -140 105 -150 0 -5 4 -10 8 -10 4 0 15 -13 25 -29 15 -27 21
-28 81 -29 70 0 73 2 72 58 -1 33 -5 37 -65 66 l-64 31 32 22 c58 42 78 121
47 194 -26 62 -53 72 -223 75 l-153 4 0 -225z m244 107 c40 -40 4 -90 -64 -89
l-45 0 -2 53 -2 52 49 0 c31 0 54 -6 64 -16z"/>
<path d="M4153 4712 c-199 -186 -495 -189 -692 -6 l-56 52 -30 -30 c-17 -16
-43 -39 -59 -51 -73 -55 -73 -54 -30 -99 80 -82 231 -167 354 -199 84 -21 236
-19 346 5 102 22 240 103 331 194 l56 56 -24 15 c-13 9 -48 40 -78 69 -30 28
-55 52 -55 52 -1 -1 -29 -27 -63 -58z"/>
</g>
</svg>
